<mxfile host="app.diagrams.net" modified="2024-04-29T11:14:44.025Z" agent="Mozilla/5.0 (X11; Linux x86_64) AppleWebKit/537.36 (KHTML, like Gecko) Chrome/124.0.0.0 Safari/537.36" version="24.3.1" etag="MNiHmfyNiJ0LCuvuIN8k" type="github">
  <diagram name="Page-1" id="osYz3VFbHMeOJRmNZ5sR">
    <mxGraphModel>
      <root>
        <mxCell id="0" />
        <mxCell id="1" parent="0" />
      </root>
    </mxGraphModel>
  </diagram>
</mxfile>
